<mxfile host="app.diagrams.net" modified="2023-09-04T11:26:05.072Z" agent="Mozilla/5.0 (Windows NT 10.0; Win64; x64; rv:109.0) Gecko/20100101 Firefox/117.0" version="21.7.1" etag="zZDM447j36En8eQFgg8U" type="github">
  <diagram name="第 1 页" id="crGBFkP3QfEQO7H9xHV9">
    <mxGraphModel>
      <root>
        <mxCell id="0" />
        <mxCell id="1" parent="0" />
      </root>
    </mxGraphModel>
  </diagram>
</mxfile>
